{"asset":{"version":"2.0","generator":"Blockbench 4.12.5 glTF exporter"},"scenes":[{"nodes":[18],"name":"blockbench_export"}],"scene":0,"nodes":[{"translation":[0.0875,0.6,0],"name":"cuboid","mesh":0},{"rotation":[0,0,-0.25881904510252074,0.9659258262890683],"translation":[0.09157500000000002,0.14508999999999994,0],"name":"cylinder","mesh":1},{"translation":[0.21657499999999996,0.29508999999999996,0],"name":"sphere","mesh":2},{"rotation":[0.37920762059027324,0.29744092066628103,-0.11106887423924625,0.8691341578690169],"translation":[0.335325,0.37634,0.0875],"name":"circle","mesh":3},{"rotation":[-0.06818754583193087,0.6082338626176017,-0.36787555077691303,0.7000497168767899],"translation":[0.335325,0.37634,-0.08125],"name":"circle","mesh":4},{"translation":[0.22282500000000005,0.38883999999999996,-0.09375],"name":"cylinder","mesh":5},{"rotation":[6.123233995736766e-17,-1,6.123233995736766e-17,3.749399456654644e-33],"translation":[0.22282500000000005,0.38883999999999996,0.10625],"name":"cylinder","mesh":6},{"translation":[0.40625,0.55,0],"name":"head group","children":[1,2,3,4,5,6]},{"translation":[0,0.006250000000000033,0],"name":"cylinder","mesh":7},{"translation":[0.23124999999999998,0.45,-0.125],"name":"leg1","children":[8]},{"translation":[0,0.006250000000000033,-0.0062500000000000056],"name":"cylinder","mesh":8},{"translation":[0.23124999999999998,0.45,0.125],"name":"leg2","children":[10]},{"translation":[0,0.006250000000000033,0],"name":"cylinder","mesh":9},{"translation":[-0.26875000000000004,0.45,-0.125],"name":"leg3","children":[12]},{"translation":[0,0.006250000000000033,-0.0062500000000000056],"name":"cylinder","mesh":10},{"translation":[-0.26875000000000004,0.45,0.125],"name":"leg4","children":[14]},{"translation":[0.06875,0,0],"name":"legs","children":[9,11,13,15]},{"name":"bone"},{"children":[0,7,16,17]}],"bufferViews":[{"buffer":0,"byteOffset":0,"byteLength":1824,"target":34962,"byteStride":12},{"buffer":0,"byteOffset":1824,"byteLength":1824,"target":34962,"byteStride":12},{"buffer":0,"byteOffset":3648,"byteLength":1216,"target":34962,"byteStride":8},{"buffer":0,"byteOffset":4864,"byteLength":456,"target":34963},{"buffer":0,"byteOffset":5320,"byteLength":1440,"target":34962,"byteStride":12},{"buffer":0,"byteOffset":6760,"byteLength":1440,"target":34962,"byteStride":12},{"buffer":0,"byteOffset":8200,"byteLength":960,"target":34962,"byteStride":8},{"buffer":0,"byteOffset":9160,"byteLength":288,"target":34963},{"buffer":0,"byteOffset":9448,"byteLength":7392,"target":34962,"byteStride":12},{"buffer":0,"byteOffset":16840,"byteLength":7392,"target":34962,"byteStride":12},{"buffer":0,"byteOffset":24232,"byteLength":4928,"target":34962,"byteStride":8},{"buffer":0,"byteOffset":29160,"byteLength":1740,"target":34963},{"buffer":0,"byteOffset":30900,"byteLength":1008,"target":34962,"byteStride":12},{"buffer":0,"byteOffset":31908,"byteLength":1008,"target":34962,"byteStride":12},{"buffer":0,"byteOffset":32916,"byteLength":672,"target":34962,"byteStride":8},{"buffer":0,"byteOffset":33588,"byteLength":216,"target":34963},{"buffer":0,"byteOffset":33804,"byteLength":1008,"target":34962,"byteStride":12},{"buffer":0,"byteOffset":34812,"byteLength":1008,"target":34962,"byteStride":12},{"buffer":0,"byteOffset":35820,"byteLength":672,"target":34962,"byteStride":8},{"buffer":0,"byteOffset":36492,"byteLength":216,"target":34963},{"buffer":0,"byteOffset":36708,"byteLength":3744,"target":34962,"byteStride":12},{"buffer":0,"byteOffset":40452,"byteLength":3744,"target":34962,"byteStride":12},{"buffer":0,"byteOffset":44196,"byteLength":2496,"target":34962,"byteStride":8},{"buffer":0,"byteOffset":46692,"byteLength":864,"target":34963},{"buffer":0,"byteOffset":47556,"byteLength":3744,"target":34962,"byteStride":12},{"buffer":0,"byteOffset":51300,"byteLength":3744,"target":34962,"byteStride":12},{"buffer":0,"byteOffset":55044,"byteLength":2496,"target":34962,"byteStride":8},{"buffer":0,"byteOffset":57540,"byteLength":864,"target":34963},{"buffer":0,"byteOffset":58404,"byteLength":1440,"target":34962,"byteStride":12},{"buffer":0,"byteOffset":59844,"byteLength":1440,"target":34962,"byteStride":12},{"buffer":0,"byteOffset":61284,"byteLength":960,"target":34962,"byteStride":8},{"buffer":0,"byteOffset":62244,"byteLength":288,"target":34963},{"buffer":0,"byteOffset":62532,"byteLength":1440,"target":34962,"byteStride":12},{"buffer":0,"byteOffset":63972,"byteLength":1440,"target":34962,"byteStride":12},{"buffer":0,"byteOffset":65412,"byteLength":960,"target":34962,"byteStride":8},{"buffer":0,"byteOffset":66372,"byteLength":288,"target":34963},{"buffer":0,"byteOffset":66660,"byteLength":1440,"target":34962,"byteStride":12},{"buffer":0,"byteOffset":68100,"byteLength":1440,"target":34962,"byteStride":12},{"buffer":0,"byteOffset":69540,"byteLength":960,"target":34962,"byteStride":8},{"buffer":0,"byteOffset":70500,"byteLength":288,"target":34963},{"buffer":0,"byteOffset":70788,"byteLength":1440,"target":34962,"byteStride":12},{"buffer":0,"byteOffset":72228,"byteLength":1440,"target":34962,"byteStride":12},{"buffer":0,"byteOffset":73668,"byteLength":960,"target":34962,"byteStride":8},{"buffer":0,"byteOffset":74628,"byteLength":288,"target":34963},{"buffer":0,"byteOffset":74916,"byteLength":88},{"buffer":0,"byteOffset":75004,"byteLength":352},{"buffer":0,"byteOffset":75356,"byteLength":88},{"buffer":0,"byteOffset":75444,"byteLength":352},{"buffer":0,"byteOffset":75796,"byteLength":88},{"buffer":0,"byteOffset":75884,"byteLength":352},{"buffer":0,"byteOffset":76236,"byteLength":88},{"buffer":0,"byteOffset":76324,"byteLength":352},{"buffer":0,"byteOffset":76676,"byteLength":88},{"buffer":0,"byteOffset":76764,"byteLength":352},{"buffer":0,"byteOffset":77116,"byteLength":84},{"buffer":0,"byteOffset":77200,"byteLength":336},{"buffer":0,"byteOffset":77536,"byteLength":80},{"buffer":0,"byteOffset":77616,"byteLength":320},{"buffer":0,"byteOffset":77936,"byteLength":84},{"buffer":0,"byteOffset":78020,"byteLength":336},{"buffer":0,"byteOffset":78356,"byteLength":84},{"buffer":0,"byteOffset":78440,"byteLength":336},{"buffer":0,"byteOffset":78776,"byteLength":84},{"buffer":0,"byteOffset":78860,"byteLength":336},{"buffer":0,"byteOffset":79196,"byteLength":156},{"buffer":0,"byteOffset":79352,"byteLength":624}],"buffers":[{"byteLength":79976,"uri":"data:application/octet-stream;base64,"}],"accessors":[{"bufferView":0,"componentType":5126,"count":152,"max":[0.40625,0.15625,0.17499999701976776],"min":[-0.40625,-0.15000000596046448,-0.17499999701976776],"type":"VEC3"},{"bufferView":1,"componentType":5126,"count":152,"max":[1,0.9999699592590332,1],"min":[-1,-1,-1],"type":"VEC3"},{"bufferView":2,"componentType":5126,"count":152,"max":[0.4375,0.4375],"min":[0,0],"type":"VEC2"},{"bufferView":3,"componentType":5123,"count":228,"max":[151],"min":[0],"type":"SCALAR"},{"bufferView":4,"componentType":5126,"count":120,"max":[0.10000000149011612,0.16249999403953552,0.10000000149011612],"min":[-0.10000000149011612,-0.16249999403953552,-0.10000000149011612],"type":"VEC3"},{"bufferView":5,"componentType":5126,"count":120,"max":[1,1,1],"min":[-1,-1,-1],"type":"VEC3"},{"bufferView":6,"componentType":5126,"count":120,"max":[0.3062500059604645,0.26875001192092896],"min":[0.011149999685585499,0],"type":"VEC2"},{"bufferView":7,"componentType":5123,"count":144,"max":[119],"min":[0],"type":"SCALAR"},{"bufferView":8,"componentType":5126,"count":616,"max":[0.35490500926971436,0.15000000596046448,0.15000000596046448],"min":[-0.15000000596046448,-0.15000000596046448,-0.15000000596046448],"type":"VEC3"},{"bufferView":9,"componentType":5126,"count":616,"max":[1,0.9943987131118774,0.9838072657585144],"min":[-0.9659441709518433,-0.9882463216781616,-0.9876940250396729],"type":"VEC3"},{"bufferView":10,"componentType":5126,"count":616,"max":[0.658762514591217,0.5675749778747559],"min":[0,0],"type":"VEC2"},{"bufferView":11,"componentType":5123,"count":870,"max":[615],"min":[0],"type":"SCALAR"},{"bufferView":12,"componentType":5126,"count":84,"max":[0.01875000074505806,0,0.01875000074505806],"min":[-0.01875000074505806,0,-0.01875000074505806],"type":"VEC3"},{"bufferView":13,"componentType":5126,"count":84,"max":[0,1,0],"min":[0,1,0],"type":"VEC3"},{"bufferView":14,"componentType":5126,"count":84,"max":[0.9500625133514404,0.375],"min":[0,0.08789187669754028],"type":"VEC2"},{"bufferView":15,"componentType":5123,"count":108,"max":[83],"min":[0],"type":"SCALAR"},{"bufferView":16,"componentType":5126,"count":84,"max":[0.01875000074505806,0,0.01875000074505806],"min":[-0.01875000074505806,0,-0.01875000074505806],"type":"VEC3"},{"bufferView":17,"componentType":5126,"count":84,"max":[0,1,0],"min":[0,1,0],"type":"VEC3"},{"bufferView":18,"componentType":5126,"count":84,"max":[0.9735612273216248,0.34375],"min":[0.03900812566280365,0.04415559768676758],"type":"VEC2"},{"bufferView":19,"componentType":5123,"count":108,"max":[83],"min":[0],"type":"SCALAR"},{"bufferView":20,"componentType":5126,"count":312,"max":[0.0062500000931322575,0.13064999878406525,0.012500000186264515],"min":[-0.01875000074505806,0.0062500000931322575,-0.02500000037252903],"type":"VEC3"},{"bufferView":21,"componentType":5126,"count":312,"max":[1,0.7688623070716858,1],"min":[-1,-1,-1],"type":"VEC3"},{"bufferView":22,"componentType":5126,"count":312,"max":[0.0161762498319149,0.0625],"min":[0,0],"type":"VEC2"},{"bufferView":23,"componentType":5123,"count":432,"max":[311],"min":[0],"type":"SCALAR"},{"bufferView":24,"componentType":5126,"count":312,"max":[0.0062500000931322575,0.13064999878406525,0.012500000186264515],"min":[-0.01875000074505806,0.0062500000931322575,-0.02500000037252903],"type":"VEC3"},{"bufferView":25,"componentType":5126,"count":312,"max":[1,0.7688623070716858,1],"min":[-1,-1,-1],"type":"VEC3"},{"bufferView":26,"componentType":5126,"count":312,"max":[0.0161762498319149,0.0625],"min":[0,0],"type":"VEC2"},{"bufferView":27,"componentType":5123,"count":432,"max":[311],"min":[0],"type":"SCALAR"},{"bufferView":28,"componentType":5126,"count":120,"max":[0.05000000074505806,0,0.05000000074505806],"min":[-0.05000000074505806,-0.44999998807907104,-0.05000000074505806],"type":"VEC3"},{"bufferView":29,"componentType":5126,"count":120,"max":[1,1,1],"min":[-1,-1,-1],"type":"VEC3"},{"bufferView":30,"componentType":5126,"count":120,"max":[0.543749988079071,0.625],"min":[0.021199999377131462,0],"type":"VEC2"},{"bufferView":31,"componentType":5123,"count":144,"max":[119],"min":[0],"type":"SCALAR"},{"bufferView":32,"componentType":5126,"count":120,"max":[0.05000000074505806,0,0.05000000074505806],"min":[-0.05000000074505806,-0.44999998807907104,-0.05000000074505806],"type":"VEC3"},{"bufferView":33,"componentType":5126,"count":120,"max":[1,1,1],"min":[-1,-1,-1],"type":"VEC3"},{"bufferView":34,"componentType":5126,"count":120,"max":[0.29374998807907104,0.625],"min":[0.021199999377131462,0],"type":"VEC2"},{"bufferView":35,"componentType":5123,"count":144,"max":[119],"min":[0],"type":"SCALAR"},{"bufferView":36,"componentType":5126,"count":120,"max":[0.05000000074505806,0,0.05000000074505806],"min":[-0.05000000074505806,-0.44999998807907104,-0.05000000074505806],"type":"VEC3"},{"bufferView":37,"componentType":5126,"count":120,"max":[1,1,1],"min":[-1,-1,-1],"type":"VEC3"},{"bufferView":38,"componentType":5126,"count":120,"max":[0.668749988079071,0.675000011920929],"min":[0.021199999377131462,0],"type":"VEC2"},{"bufferView":39,"componentType":5123,"count":144,"max":[119],"min":[0],"type":"SCALAR"},{"bufferView":40,"componentType":5126,"count":120,"max":[0.05000000074505806,0,0.05000000074505806],"min":[-0.05000000074505806,-0.44999998807907104,-0.05000000074505806],"type":"VEC3"},{"bufferView":41,"componentType":5126,"count":120,"max":[1,1,1],"min":[-1,-1,-1],"type":"VEC3"},{"bufferView":42,"componentType":5126,"count":120,"max":[0.668749988079071,0.48750001192092896],"min":[0.1462000012397766,0.03750002384185791],"type":"VEC2"},{"bufferView":43,"componentType":5123,"count":144,"max":[119],"min":[0],"type":"SCALAR"},{"bufferView":44,"componentType":5126,"count":22,"max":[1.25],"min":[0],"type":"SCALAR"},{"bufferView":45,"componentType":5126,"count":22,"max":[0,0,0.06540312618017197,1],"min":[0,0,-0.06585666537284851,0.9978290796279907],"type":"VEC4"},{"bufferView":46,"componentType":5126,"count":22,"max":[1.25],"min":[0],"type":"SCALAR"},{"bufferView":47,"componentType":5126,"count":22,"max":[0,0,0.06540312618017197,1],"min":[0,0,-0.044606007635593414,0.9978589415550232],"type":"VEC4"},{"bufferView":48,"componentType":5126,"count":22,"max":[1.25],"min":[0],"type":"SCALAR"},{"bufferView":49,"componentType":5126,"count":22,"max":[0,0,0.06540312618017197,1],"min":[0,0,-0.04543563351035118,0.9978589415550232],"type":"VEC4"},{"bufferView":50,"componentType":5126,"count":22,"max":[1.25],"min":[0],"type":"SCALAR"},{"bufferView":51,"componentType":5126,"count":22,"max":[0,0,0.04392210394144058,1],"min":[0,0,-0.04361938685178757,0.9990349411964417],"type":"VEC4"},{"bufferView":52,"componentType":5126,"count":22,"max":[1.25],"min":[0],"type":"SCALAR"},{"bufferView":53,"componentType":5126,"count":22,"max":[0,0,0.017452405765652657,1],"min":[0,0,-0.009301106445491314,0.9998477101325989],"type":"VEC4"},{"bufferView":54,"componentType":5126,"count":21,"max":[1.25],"min":[0],"type":"SCALAR"},{"bufferView":55,"componentType":5126,"count":21,"max":[0,0,0.0980171412229538,1],"min":[0,0,-0.0966600775718689,0.9951847195625305],"type":"VEC4"},{"bufferView":56,"componentType":5126,"count":20,"max":[1.1666666269302368],"min":[0],"type":"SCALAR"},{"bufferView":57,"componentType":5126,"count":20,"max":[0,0,0.09884757548570633,1],"min":[0,0,-0.07076848298311234,0.99510258436203],"type":"VEC4"},{"bufferView":58,"componentType":5126,"count":21,"max":[1.25],"min":[0],"type":"SCALAR"},{"bufferView":59,"componentType":5126,"count":21,"max":[0,0,0.09549828618764877,1],"min":[0,0,-0.07436634600162506,0.9954295754432678],"type":"VEC4"},{"bufferView":60,"componentType":5126,"count":21,"max":[1.25],"min":[0],"type":"SCALAR"},{"bufferView":61,"componentType":5126,"count":21,"max":[0,0,0.07477325946092606,1],"min":[0,0,-0.07628397643566132,0.9970861077308655],"type":"VEC4"},{"bufferView":62,"componentType":5126,"count":21,"max":[1.25],"min":[0],"type":"SCALAR"},{"bufferView":63,"componentType":5126,"count":21,"max":[0,0,0.017452405765652657,1],"min":[0,0,-0.009301106445491314,0.9998477101325989],"type":"VEC4"},{"bufferView":64,"componentType":5126,"count":39,"max":[2],"min":[0],"type":"SCALAR"},{"bufferView":65,"componentType":5126,"count":39,"max":[0.00004922179505228996,0.00872578751295805,0.01701613888144493,0.9999911189079285],"min":[-0.00011422682291595265,-0.013137472793459892,-0.004362935665994883,0.9998552203178406],"type":"VEC4"}],"materials":[{"pbrMetallicRoughness":{"metallicFactor":0,"roughnessFactor":1,"baseColorTexture":{"index":0}},"alphaMode":"MASK","alphaCutoff":0.05,"doubleSided":true},{"pbrMetallicRoughness":{"metallicFactor":0,"roughnessFactor":1,"baseColorTexture":{"index":1}},"alphaMode":"MASK","alphaCutoff":0.05,"doubleSided":true},{"pbrMetallicRoughness":{"metallicFactor":0,"roughnessFactor":1,"baseColorTexture":{"index":2}},"alphaMode":"MASK","alphaCutoff":0.05,"doubleSided":true},{"pbrMetallicRoughness":{"metallicFactor":0,"roughnessFactor":1,"baseColorTexture":{"index":3}},"alphaMode":"MASK","alphaCutoff":0.05,"doubleSided":true},{"pbrMetallicRoughness":{"metallicFactor":0,"roughnessFactor":1},"alphaMode":"MASK","alphaCutoff":0.05,"doubleSided":true},{"pbrMetallicRoughness":{"metallicFactor":0,"roughnessFactor":1,"baseColorTexture":{"index":4}},"alphaMode":"MASK","alphaCutoff":0.05,"doubleSided":true}],"textures":[{"sampler":0,"source":0,"name":"neck texture"},{"sampler":1,"source":1,"name":"texture"},{"sampler":2,"source":2,"name":"head texture"},{"sampler":3,"source":3,"name":"texture"},{"sampler":4,"source":4,"name":"texture"}],"samplers":[{"magFilter":9728,"minFilter":9728,"wrapS":33071,"wrapT":33071},{"magFilter":9728,"minFilter":9728,"wrapS":33071,"wrapT":33071},{"magFilter":9728,"minFilter":9728,"wrapS":33071,"wrapT":33071},{"magFilter":9728,"minFilter":9728,"wrapS":33071,"wrapT":33071},{"magFilter":9728,"minFilter":9728,"wrapS":33071,"wrapT":33071}],"images":[{"mimeType":"image/png","uri":"data:image/png;base64,"},{"mimeType":"image/png","uri":"data:image/png;base64,"},{"mimeType":"image/png","uri":"data:image/png;base64,"},{"mimeType":"image/png","uri":"data:image/png;base64,"},{"mimeType":"image/png","uri":"data:image/png;base64,"}],"meshes":[{"primitives":[{"mode":4,"attributes":{"POSITION":0,"NORMAL":1,"TEXCOORD_0":2},"indices":3,"material":0}]},{"primitives":[{"mode":4,"attributes":{"POSITION":4,"NORMAL":5,"TEXCOORD_0":6},"indices":7,"material":1}]},{"primitives":[{"mode":4,"attributes":{"POSITION":8,"NORMAL":9,"TEXCOORD_0":10},"indices":11,"material":2}]},{"primitives":[{"mode":4,"attributes":{"POSITION":12,"NORMAL":13,"TEXCOORD_0":14},"indices":15,"material":3}]},{"primitives":[{"mode":4,"attributes":{"POSITION":16,"NORMAL":17,"TEXCOORD_0":18},"indices":19,"material":3}]},{"primitives":[{"mode":4,"attributes":{"POSITION":20,"NORMAL":21,"TEXCOORD_0":22},"indices":23,"material":4}]},{"primitives":[{"mode":4,"attributes":{"POSITION":24,"NORMAL":25,"TEXCOORD_0":26},"indices":27,"material":4}]},{"primitives":[{"mode":4,"attributes":{"POSITION":28,"NORMAL":29,"TEXCOORD_0":30},"indices":31,"material":5}]},{"primitives":[{"mode":4,"attributes":{"POSITION":32,"NORMAL":33,"TEXCOORD_0":34},"indices":35,"material":5}]},{"primitives":[{"mode":4,"attributes":{"POSITION":36,"NORMAL":37,"TEXCOORD_0":38},"indices":39,"material":5}]},{"primitives":[{"mode":4,"attributes":{"POSITION":40,"NORMAL":41,"TEXCOORD_0":42},"indices":43,"material":5}]}],"animations":[{"name":"walk","samplers":[{"input":44,"output":45,"interpolation":"LINEAR"},{"input":46,"output":47,"interpolation":"LINEAR"},{"input":48,"output":49,"interpolation":"LINEAR"},{"input":50,"output":51,"interpolation":"LINEAR"},{"input":52,"output":53,"interpolation":"LINEAR"}],"channels":[{"sampler":0,"target":{"node":15,"path":"rotation"}},{"sampler":1,"target":{"node":9,"path":"rotation"}},{"sampler":2,"target":{"node":11,"path":"rotation"}},{"sampler":3,"target":{"node":13,"path":"rotation"}},{"sampler":4,"target":{"node":7,"path":"rotation"}}]},{"name":"run","samplers":[{"input":54,"output":55,"interpolation":"LINEAR"},{"input":56,"output":57,"interpolation":"LINEAR"},{"input":58,"output":59,"interpolation":"LINEAR"},{"input":60,"output":61,"interpolation":"LINEAR"},{"input":62,"output":63,"interpolation":"LINEAR"}],"channels":[{"sampler":0,"target":{"node":15,"path":"rotation"}},{"sampler":1,"target":{"node":9,"path":"rotation"}},{"sampler":2,"target":{"node":11,"path":"rotation"}},{"sampler":3,"target":{"node":13,"path":"rotation"}},{"sampler":4,"target":{"node":7,"path":"rotation"}}]},{"name":"idle","samplers":[{"input":64,"output":65,"interpolation":"LINEAR"}],"channels":[{"sampler":0,"target":{"node":7,"path":"rotation"}}]}]}