{"asset":{"version":"2.0","generator":"Blockbench 4.12.5 glTF exporter"},"scenes":[{"nodes":[6],"name":"blockbench_export"}],"scene":0,"nodes":[{"translation":[0,0.037500000000000006,0],"name":"cylinder","mesh":0},{"translation":[0,1.850000000000001,0],"name":"cone","mesh":1},{"translation":[0,2.350000000000001,0],"name":"cone","mesh":2},{"translation":[0,2.850000000000001,0],"name":"cone","mesh":3},{"translation":[0,2.850000000000001,0],"name":"cone"},{"name":"bone","children":[0,1,2,3,4]},{"children":[5]}],"bufferViews":[{"buffer":0,"byteOffset":0,"byteLength":1440,"target":34962,"byteStride":12},{"buffer":0,"byteOffset":1440,"byteLength":1440,"target":34962,"byteStride":12},{"buffer":0,"byteOffset":2880,"byteLength":960,"target":34962,"byteStride":8},{"buffer":0,"byteOffset":3840,"byteLength":288,"target":34963},{"buffer":0,"byteOffset":4128,"byteLength":864,"target":34962,"byteStride":12},{"buffer":0,"byteOffset":4992,"byteLength":864,"target":34962,"byteStride":12},{"buffer":0,"byteOffset":5856,"byteLength":576,"target":34962,"byteStride":8},{"buffer":0,"byteOffset":6432,"byteLength":144,"target":34963},{"buffer":0,"byteOffset":6576,"byteLength":864,"target":34962,"byteStride":12},{"buffer":0,"byteOffset":7440,"byteLength":864,"target":34962,"byteStride":12},{"buffer":0,"byteOffset":8304,"byteLength":576,"target":34962,"byteStride":8},{"buffer":0,"byteOffset":8880,"byteLength":144,"target":34963},{"buffer":0,"byteOffset":9024,"byteLength":864,"target":34962,"byteStride":12},{"buffer":0,"byteOffset":9888,"byteLength":864,"target":34962,"byteStride":12},{"buffer":0,"byteOffset":10752,"byteLength":576,"target":34962,"byteStride":8},{"buffer":0,"byteOffset":11328,"byteLength":144,"target":34963},{"buffer":0,"byteOffset":11472,"byteLength":68},{"buffer":0,"byteOffset":11540,"byteLength":272}],"buffers":[{"byteLength":11812,"uri":"data:application/octet-stream;base64,"}],"accessors":[{"bufferView":0,"componentType":5126,"count":120,"max":[0.16249999403953552,1.8125,0.16249999403953552],"min":[-0.16249999403953552,-0.03750000149011612,-0.16249999403953552],"type":"VEC3"},{"bufferView":1,"componentType":5126,"count":120,"max":[1,1,1],"min":[-1,-1,-1],"type":"VEC3"},{"bufferView":2,"componentType":5126,"count":120,"max":[0.33281248807907104,0.512499988079071],"min":[0.014918750151991844,0],"type":"VEC2"},{"bufferView":3,"componentType":5123,"count":144,"max":[119],"min":[0],"type":"SCALAR"},{"bufferView":4,"componentType":5126,"count":72,"max":[1.006250023841858,1.087499976158142,1.006250023841858],"min":[-1.006250023841858,0,-1.006250023841858],"type":"VEC3"},{"bufferView":5,"componentType":5126,"count":72,"max":[0.7339943051338196,0.6791556477546692,0.7339943051338196],"min":[-0.7339943051338196,-1,-0.7339943051338196],"type":"VEC3"},{"bufferView":6,"componentType":5126,"count":72,"max":[0.892533540725708,0.9069947600364685],"min":[0.014843749813735485,0],"type":"VEC2"},{"bufferView":7,"componentType":5123,"count":72,"max":[71],"min":[0],"type":"SCALAR"},{"bufferView":8,"componentType":5126,"count":72,"max":[0.831250011920929,1.1124999523162842,0.831250011920929],"min":[-0.831250011920929,-0.02500000037252903,-0.831250011920929],"type":"VEC3"},{"bufferView":9,"componentType":5126,"count":72,"max":[0.8073911070823669,0.5900166034698486,0.8073911070823669],"min":[-0.8073911070823669,-1,-0.8073911070823669],"type":"VEC3"},{"bufferView":10,"componentType":5126,"count":72,"max":[0.7995564937591553,0.8011062145233154],"min":[0.0054687499068677425,0.1875],"type":"VEC2"},{"bufferView":11,"componentType":5123,"count":72,"max":[71],"min":[0],"type":"SCALAR"},{"bufferView":12,"componentType":5126,"count":72,"max":[0.65625,1.1124999523162842,0.65625],"min":[-0.65625,-0.02500000037252903,-0.65625],"type":"VEC3"},{"bufferView":13,"componentType":5126,"count":72,"max":[0.8661856055259705,0.4997224807739258,0.8661856055259705],"min":[-0.8661856055259705,-1,-0.8661856055259705],"type":"VEC3"},{"bufferView":14,"componentType":5126,"count":72,"max":[0.8612699508666992,0.8516530990600586],"min":[0.01171875,0],"type":"VEC2"},{"bufferView":15,"componentType":5123,"count":72,"max":[71],"min":[0],"type":"SCALAR"},{"bufferView":16,"componentType":5126,"count":17,"max":[1],"min":[0],"type":"SCALAR"},{"bufferView":17,"componentType":5126,"count":17,"max":[0,0,-0.04361938685178757,0.9990482330322266],"min":[0,0,-0.7071067690849304,0.7071067690849304],"type":"VEC4"}],"materials":[{"pbrMetallicRoughness":{"metallicFactor":0,"roughnessFactor":1,"baseColorTexture":{"index":0}},"alphaMode":"MASK","alphaCutoff":0.05,"doubleSided":true},{"pbrMetallicRoughness":{"metallicFactor":0,"roughnessFactor":1,"baseColorTexture":{"index":1}},"alphaMode":"MASK","alphaCutoff":0.05,"doubleSided":true}],"textures":[{"sampler":0,"source":0,"name":"tree trunk texture"},{"sampler":1,"source":1,"name":"leaves texture"}],"samplers":[{"magFilter":9728,"minFilter":9728,"wrapS":33071,"wrapT":33071},{"magFilter":9728,"minFilter":9728,"wrapS":33071,"wrapT":33071}],"images":[{"mimeType":"image/png","uri":"data:image/png;base64,"},{"mimeType":"image/png","uri":"data:image/png;base64,"}],"meshes":[{"primitives":[{"mode":4,"attributes":{"POSITION":0,"NORMAL":1,"TEXCOORD_0":2},"indices":3,"material":0}]},{"primitives":[{"mode":4,"attributes":{"POSITION":4,"NORMAL":5,"TEXCOORD_0":6},"indices":7,"material":1}]},{"primitives":[{"mode":4,"attributes":{"POSITION":8,"NORMAL":9,"TEXCOORD_0":10},"indices":11,"material":1}]},{"primitives":[{"mode":4,"attributes":{"POSITION":12,"NORMAL":13,"TEXCOORD_0":14},"indices":15,"material":1}]}],"animations":[{"name":"falling","samplers":[{"input":16,"output":17,"interpolation":"LINEAR"}],"channels":[{"sampler":0,"target":{"node":5,"path":"rotation"}}]}]}